<mxfile host="app.diagrams.net" modified="2024-05-16T00:38:57.004Z" agent="Mozilla/5.0 (Windows NT 10.0; Win64; x64) AppleWebKit/537.36 (KHTML, like Gecko) Chrome/124.0.0.0 Safari/537.36" etag="hv55trbBVpR3a27YwjtV" version="24.4.2" type="device">
  <diagram name="Page-1" id="mbWcbjOo1qJOWjV5xUTs">
    <mxGraphModel dx="1434" dy="738" grid="1" gridSize="10" guides="1" tooltips="1" connect="1" arrows="1" fold="1" page="1" pageScale="1" pageWidth="850" pageHeight="1100" math="0" shadow="0">
      <root>
        <mxCell id="0" />
        <mxCell id="1" parent="0" />
        <mxCell id="RhFkO6anIScouZvozoql-4" style="edgeStyle=orthogonalEdgeStyle;rounded=0;orthogonalLoop=1;jettySize=auto;html=1;" edge="1" parent="1" source="RhFkO6anIScouZvozoql-1" target="RhFkO6anIScouZvozoql-3">
          <mxGeometry relative="1" as="geometry" />
        </mxCell>
        <mxCell id="RhFkO6anIScouZvozoql-1" value="Start" style="rounded=1;whiteSpace=wrap;html=1;" vertex="1" parent="1">
          <mxGeometry x="365" y="30" width="120" height="60" as="geometry" />
        </mxCell>
        <mxCell id="RhFkO6anIScouZvozoql-2" value="This needs to be done after the position of a cell is updated." style="text;html=1;align=center;verticalAlign=middle;whiteSpace=wrap;rounded=0;" vertex="1" parent="1">
          <mxGeometry x="50" y="50" width="60" height="30" as="geometry" />
        </mxCell>
        <mxCell id="RhFkO6anIScouZvozoql-5" style="edgeStyle=orthogonalEdgeStyle;rounded=0;orthogonalLoop=1;jettySize=auto;html=1;" edge="1" parent="1" source="RhFkO6anIScouZvozoql-3">
          <mxGeometry relative="1" as="geometry">
            <mxPoint x="280" y="280" as="targetPoint" />
          </mxGeometry>
        </mxCell>
        <mxCell id="RhFkO6anIScouZvozoql-25" style="edgeStyle=orthogonalEdgeStyle;rounded=0;orthogonalLoop=1;jettySize=auto;html=1;" edge="1" parent="1" source="RhFkO6anIScouZvozoql-3">
          <mxGeometry relative="1" as="geometry">
            <mxPoint x="520" y="420" as="targetPoint" />
            <Array as="points">
              <mxPoint x="521" y="170" />
            </Array>
          </mxGeometry>
        </mxCell>
        <mxCell id="RhFkO6anIScouZvozoql-3" value="If i &amp;lt;= N" style="rhombus;whiteSpace=wrap;html=1;" vertex="1" parent="1">
          <mxGeometry x="385" y="130" width="80" height="80" as="geometry" />
        </mxCell>
        <mxCell id="RhFkO6anIScouZvozoql-6" value="Yes" style="text;html=1;align=center;verticalAlign=middle;whiteSpace=wrap;rounded=0;" vertex="1" parent="1">
          <mxGeometry x="300" y="130" width="60" height="30" as="geometry" />
        </mxCell>
        <mxCell id="RhFkO6anIScouZvozoql-8" style="edgeStyle=orthogonalEdgeStyle;rounded=0;orthogonalLoop=1;jettySize=auto;html=1;" edge="1" parent="1" source="RhFkO6anIScouZvozoql-7">
          <mxGeometry relative="1" as="geometry">
            <mxPoint x="360" y="410" as="targetPoint" />
          </mxGeometry>
        </mxCell>
        <mxCell id="RhFkO6anIScouZvozoql-13" style="edgeStyle=orthogonalEdgeStyle;rounded=0;orthogonalLoop=1;jettySize=auto;html=1;entryX=0.5;entryY=0;entryDx=0;entryDy=0;" edge="1" parent="1" source="RhFkO6anIScouZvozoql-7" target="RhFkO6anIScouZvozoql-12">
          <mxGeometry relative="1" as="geometry" />
        </mxCell>
        <mxCell id="RhFkO6anIScouZvozoql-7" value="if j &amp;lt;= N" style="rhombus;whiteSpace=wrap;html=1;" vertex="1" parent="1">
          <mxGeometry x="240" y="280" width="80" height="80" as="geometry" />
        </mxCell>
        <mxCell id="RhFkO6anIScouZvozoql-10" style="edgeStyle=orthogonalEdgeStyle;rounded=0;orthogonalLoop=1;jettySize=auto;html=1;" edge="1" parent="1" source="RhFkO6anIScouZvozoql-9" target="RhFkO6anIScouZvozoql-3">
          <mxGeometry relative="1" as="geometry">
            <Array as="points">
              <mxPoint x="425" y="440" />
            </Array>
          </mxGeometry>
        </mxCell>
        <mxCell id="RhFkO6anIScouZvozoql-9" value="i ++" style="rounded=0;whiteSpace=wrap;html=1;" vertex="1" parent="1">
          <mxGeometry x="300" y="410" width="120" height="60" as="geometry" />
        </mxCell>
        <mxCell id="RhFkO6anIScouZvozoql-11" value="No" style="text;html=1;align=center;verticalAlign=middle;whiteSpace=wrap;rounded=0;" vertex="1" parent="1">
          <mxGeometry x="320" y="290" width="60" height="30" as="geometry" />
        </mxCell>
        <mxCell id="RhFkO6anIScouZvozoql-15" style="edgeStyle=orthogonalEdgeStyle;rounded=0;orthogonalLoop=1;jettySize=auto;html=1;" edge="1" parent="1" source="RhFkO6anIScouZvozoql-12" target="RhFkO6anIScouZvozoql-14">
          <mxGeometry relative="1" as="geometry" />
        </mxCell>
        <mxCell id="RhFkO6anIScouZvozoql-12" value="Solve (10) for (xa,ya) = (xi,yi) &amp;amp; (x2,y2) = (xj,yj) &amp;amp; (x3,y3) = (x(j+1),y(j+1))" style="rounded=0;whiteSpace=wrap;html=1;" vertex="1" parent="1">
          <mxGeometry x="100" y="410" width="120" height="60" as="geometry" />
        </mxCell>
        <mxCell id="RhFkO6anIScouZvozoql-16" style="edgeStyle=orthogonalEdgeStyle;rounded=0;orthogonalLoop=1;jettySize=auto;html=1;" edge="1" parent="1" source="RhFkO6anIScouZvozoql-14">
          <mxGeometry relative="1" as="geometry">
            <mxPoint x="60" y="710" as="targetPoint" />
          </mxGeometry>
        </mxCell>
        <mxCell id="RhFkO6anIScouZvozoql-21" style="edgeStyle=orthogonalEdgeStyle;rounded=0;orthogonalLoop=1;jettySize=auto;html=1;entryX=0;entryY=0.5;entryDx=0;entryDy=0;exitX=0.5;exitY=1;exitDx=0;exitDy=0;" edge="1" parent="1" source="RhFkO6anIScouZvozoql-14" target="RhFkO6anIScouZvozoql-20">
          <mxGeometry relative="1" as="geometry">
            <Array as="points">
              <mxPoint x="160" y="740" />
            </Array>
          </mxGeometry>
        </mxCell>
        <mxCell id="RhFkO6anIScouZvozoql-14" value="if u &amp;gt; 0, v &amp;gt; 0 and u + v &amp;lt;1" style="rhombus;whiteSpace=wrap;html=1;" vertex="1" parent="1">
          <mxGeometry x="115" y="530" width="90" height="90" as="geometry" />
        </mxCell>
        <mxCell id="RhFkO6anIScouZvozoql-19" style="edgeStyle=orthogonalEdgeStyle;rounded=0;orthogonalLoop=1;jettySize=auto;html=1;" edge="1" parent="1" source="RhFkO6anIScouZvozoql-17" target="RhFkO6anIScouZvozoql-20">
          <mxGeometry relative="1" as="geometry">
            <mxPoint x="200" y="740" as="targetPoint" />
          </mxGeometry>
        </mxCell>
        <mxCell id="RhFkO6anIScouZvozoql-17" value="Collision merge (xi,yi) with closest node" style="rounded=0;whiteSpace=wrap;html=1;" vertex="1" parent="1">
          <mxGeometry y="710" width="120" height="60" as="geometry" />
        </mxCell>
        <mxCell id="RhFkO6anIScouZvozoql-18" value="Yes" style="text;html=1;align=center;verticalAlign=middle;whiteSpace=wrap;rounded=0;" vertex="1" parent="1">
          <mxGeometry x="60" y="535" width="60" height="30" as="geometry" />
        </mxCell>
        <mxCell id="RhFkO6anIScouZvozoql-22" style="edgeStyle=orthogonalEdgeStyle;rounded=0;orthogonalLoop=1;jettySize=auto;html=1;entryX=0.5;entryY=1;entryDx=0;entryDy=0;" edge="1" parent="1" source="RhFkO6anIScouZvozoql-20" target="RhFkO6anIScouZvozoql-7">
          <mxGeometry relative="1" as="geometry" />
        </mxCell>
        <mxCell id="RhFkO6anIScouZvozoql-20" value="j++" style="rounded=0;whiteSpace=wrap;html=1;" vertex="1" parent="1">
          <mxGeometry x="220" y="710" width="120" height="60" as="geometry" />
        </mxCell>
        <mxCell id="RhFkO6anIScouZvozoql-23" value="Yes" style="text;html=1;align=center;verticalAlign=middle;whiteSpace=wrap;rounded=0;" vertex="1" parent="1">
          <mxGeometry x="170" y="280" width="60" height="30" as="geometry" />
        </mxCell>
        <mxCell id="RhFkO6anIScouZvozoql-24" value="No" style="text;html=1;align=center;verticalAlign=middle;whiteSpace=wrap;rounded=0;" vertex="1" parent="1">
          <mxGeometry x="170" y="650" width="60" height="30" as="geometry" />
        </mxCell>
        <mxCell id="RhFkO6anIScouZvozoql-26" value="End" style="rounded=1;whiteSpace=wrap;html=1;" vertex="1" parent="1">
          <mxGeometry x="460" y="420" width="120" height="60" as="geometry" />
        </mxCell>
        <mxCell id="RhFkO6anIScouZvozoql-27" value="This needs to be done for every cell" style="text;html=1;align=center;verticalAlign=middle;whiteSpace=wrap;rounded=0;" vertex="1" parent="1">
          <mxGeometry x="660" y="60" width="60" height="30" as="geometry" />
        </mxCell>
      </root>
    </mxGraphModel>
  </diagram>
</mxfile>
